<?xml version="1.0" encoding="UTF-8"?>
<!DOCTYPE svg PUBLIC "-//W3C//DTD SVG 1.1//EN" "http://www.w3.org/Graphics/SVG/1.1/DTD/svg11.dtd">
<svg xmlns="http://www.w3.org/2000/svg" version="1.1" width="2085px" height="1502px" style="shape-rendering:geometricPrecision; text-rendering:geometricPrecision; image-rendering:optimizeQuality; fill-rule:evenodd; clip-rule:evenodd" xmlns:xlink="http://www.w3.org/1999/xlink">
<g><path style="opacity:0.984" fill="#fefffe" d="M 947.5,-0.5 C 949.833,-0.5 952.167,-0.5 954.5,-0.5C 969.169,29.6713 984.502,59.5047 1000.5,89C 1033.87,90.5752 1067.2,91.4086 1100.5,91.5C 1117.83,62.3508 1135.33,33.3508 1153,4.5C 1190.9,13.6335 1227.4,26.6335 1262.5,43.5C 1262.83,44.3333 1263.17,45.1667 1263.5,46C 1259.57,71.1516 1255.74,96.3183 1252,121.5C 1117.57,122.499 983.07,122.832 848.5,122.5C 845.593,92.1888 842.926,61.8554 840.5,31.5C 875.273,17.5732 910.94,6.90649 947.5,-0.5 Z"/></g>
<g><path style="opacity:0.993" fill="#fefffe" d="M 674.5,145.5 C 705.728,159.53 736.562,174.53 767,190.5C 767.668,239.171 779.001,285.171 801,328.5C 822.471,363.972 851.637,391.139 888.5,410C 920.32,425.077 951.986,440.41 983.5,456C 1003.7,467.524 1022.2,481.357 1039,497.5C 1055.13,481.692 1072.96,468.192 1092.5,457C 1127.04,439.814 1161.71,422.814 1196.5,406C 1247.02,377.469 1280.52,335.302 1297,279.5C 1301.14,264.611 1304.81,249.611 1308,234.5C 1313.33,224.177 1319.83,214.677 1327.5,206C 1357.95,193.275 1388.28,180.275 1418.5,167C 1419.83,166.333 1421.17,166.333 1422.5,167C 1447.7,196.549 1469.37,228.549 1487.5,263C 1464.74,287.763 1441.24,311.93 1417,335.5C 1425.62,367.554 1434.79,399.554 1444.5,431.5C 1477.1,439.42 1509.76,447.086 1542.5,454.5C 1543.28,455.729 1543.78,457.062 1544,458.5C 1546.67,496.625 1545.5,534.625 1540.5,572.5C 1507.2,578.106 1473.86,583.606 1440.5,589C 1428.87,620.041 1417.54,651.207 1406.5,682.5C 1428.38,708.402 1450.38,734.235 1472.5,760C 1452.5,794.175 1428.5,825.341 1400.5,853.5C 1370.99,838.244 1341.32,823.244 1311.5,808.5C 1310.57,770 1303.4,732.667 1290,696.5C 1271.53,648.364 1239.36,612.531 1193.5,589C 1174.2,578.848 1154.53,569.515 1134.5,561C 1107.53,548.859 1082.2,534.192 1058.5,517C 1052,511.167 1045.5,505.333 1039,499.5C 1011.83,524.188 981.326,544.021 947.5,559C 915.123,571.994 884.456,587.994 855.5,607C 820.403,633.334 796.236,667.501 783,709.5C 777.726,726.595 773.393,743.928 770,761.5C 765.019,772.13 759.019,782.13 752,791.5C 720.584,804.972 689.251,818.639 658,832.5C 631.697,803.026 609.531,770.692 591.5,735.5C 613.728,710.769 636.895,686.769 661,663.5C 652.797,631.701 643.797,600.034 634,568.5C 633.612,567.572 632.945,566.905 632,566.5C 599.577,558.769 567.077,551.436 534.5,544.5C 532.526,519.219 532.026,493.886 533,468.5C 533.748,454.35 535.414,440.35 538,426.5C 571.138,420.727 604.304,414.893 637.5,409C 648.889,378.168 659.889,347.168 670.5,316C 648.926,289.753 626.593,264.087 603.5,239C 623.898,205.379 647.565,174.212 674.5,145.5 Z"/></g>
<g><path style="opacity:0.965" fill="#ec8f28" d="M 855.5,348.5 C 866.355,353.619 877.689,357.452 889.5,360C 915.533,364.481 941.533,369.148 967.5,374C 996.606,379.966 1021.77,393.133 1043,413.5C 1065.13,392.514 1091.3,379.014 1121.5,373C 1143.47,368.814 1165.47,364.814 1187.5,361C 1198.17,358.915 1208.51,355.749 1218.5,351.5C 1218.83,351.833 1219.17,352.167 1219.5,352.5C 1209.51,361.984 1198.51,370.151 1186.5,377C 1152.78,394.195 1118.78,410.862 1084.5,427C 1068.72,435.968 1053.55,445.801 1039,456.5C 1023.11,445.132 1006.61,434.632 989.5,425C 957.68,409.923 926.014,394.59 894.5,379C 880.54,371.043 867.707,361.543 856,350.5C 855.536,349.906 855.369,349.239 855.5,348.5 Z"/></g>
<g><path style="opacity:0.989" fill="#ec8f28" d="M 866.5,656.5 C 898.351,655.97 930.017,658.137 961.5,663C 1011.32,671.897 1060.98,681.563 1110.5,692C 1143.52,698.668 1176.85,701.668 1210.5,701C 1225.64,700.282 1240.48,697.782 1255,693.5C 1258.42,698.381 1261.08,703.714 1263,709.5C 1268.26,724.206 1272.43,739.206 1275.5,754.5C 1117.83,755.5 960.168,755.833 802.5,755.5C 807.736,719.588 821.403,687.422 843.5,659C 851.328,658.256 858.995,657.423 866.5,656.5 Z"/></g>
<g><path style="opacity:0.987" fill="#fefffe" d="M 827.5,874.5 C 960.834,874.333 1094.17,874.5 1227.5,875C 1230.96,905.058 1233.46,935.225 1235,965.5C 1199.92,981.226 1163.42,991.559 1125.5,996.5C 1110.17,967.167 1094.83,937.833 1079.5,908.5C 1045.87,906.295 1012.21,905.462 978.5,906C 962.207,933.418 946.041,960.918 930,988.5C 929.128,990.613 927.628,991.946 925.5,992.5C 887.299,984.143 850.799,971.143 816,953.5C 819.498,927.182 823.331,900.849 827.5,874.5 Z"/></g>
<g><path style="opacity:0.963" fill="#fefffe" d="M 555.5,1174.5 C 603.182,1169.75 637.348,1188.75 658,1231.5C 660.139,1237.41 661.972,1243.41 663.5,1249.5C 654.167,1250.83 644.833,1250.83 635.5,1249.5C 620.606,1211.45 592.939,1195.62 552.5,1202C 529.28,1208.92 514.447,1224.09 508,1247.5C 506.744,1252.45 505.744,1257.45 505,1262.5C 504.333,1294.83 504.333,1327.17 505,1359.5C 511.232,1403.41 536.398,1424.24 580.5,1422C 608.913,1416.08 627.246,1399.25 635.5,1371.5C 644.833,1371.5 654.167,1371.5 663.5,1371.5C 654.722,1412.78 629.722,1437.95 588.5,1447C 572.869,1448.55 557.203,1448.88 541.5,1448C 524.966,1440.32 510.466,1429.82 498,1416.5C 484.857,1398.74 477.857,1378.74 477,1356.5C 476.333,1326.5 476.333,1296.5 477,1266.5C 478.229,1231.85 493.063,1205.02 521.5,1186C 532.309,1180.23 543.643,1176.4 555.5,1174.5 Z"/></g>
<g><path style="opacity:0.956" fill="#fefffe" d="M -0.5,1176.5 C 8.83333,1176.5 18.1667,1176.5 27.5,1176.5C 27.3333,1213.83 27.5,1251.17 28,1288.5C 32.5273,1321.19 51.3606,1337.19 84.5,1336.5C 106.125,1337.46 124.291,1330.13 139,1314.5C 145.211,1306.21 148.878,1296.87 150,1286.5C 150.5,1249.83 150.667,1213.17 150.5,1176.5C 159.833,1176.5 169.167,1176.5 178.5,1176.5C 178.5,1266.17 178.5,1355.83 178.5,1445.5C 169.167,1445.5 159.833,1445.5 150.5,1445.5C 150.667,1406.83 150.5,1368.17 150,1329.5C 136.558,1349.48 117.725,1360.65 93.5,1363C 34.7991,1367.78 3.46573,1340.95 -0.5,1282.5C -0.5,1247.17 -0.5,1211.83 -0.5,1176.5 Z"/></g>
<g><path style="opacity:0.965" fill="#fefffe" d="M 316.5,1176.5 C 327.748,1176.18 338.915,1176.51 350,1177.5C 382.735,1266.54 415.568,1355.54 448.5,1444.5C 438.167,1445.83 427.833,1445.83 417.5,1444.5C 409.927,1423.28 402.26,1402.11 394.5,1381C 353.5,1380.33 312.5,1380.33 271.5,1381C 263.74,1402.11 256.073,1423.28 248.5,1444.5C 238.183,1445.67 227.849,1445.83 217.5,1445C 250.797,1355.61 283.797,1266.11 316.5,1176.5 Z M 332.5,1207.5 C 350.258,1256.21 367.925,1305.04 385.5,1354C 350.5,1354.67 315.5,1354.67 280.5,1354C 298.328,1305.35 315.662,1256.52 332.5,1207.5 Z"/></g>
<g><path style="opacity:0.981" fill="#fefffe" d="M 935.5,1501.5 C 918.833,1501.5 902.167,1501.5 885.5,1501.5C 885.5,1482.83 885.5,1464.17 885.5,1445.5C 838.167,1445.5 790.833,1445.5 743.5,1445.5C 743.5,1464.17 743.5,1482.83 743.5,1501.5C 727.167,1501.5 710.833,1501.5 694.5,1501.5C 694.5,1466.5 694.5,1431.5 694.5,1396.5C 711.362,1397.46 722.862,1390.12 729,1374.5C 730.741,1369.95 732.074,1365.28 733,1360.5C 734.477,1299.2 734.977,1237.87 734.5,1176.5C 791.833,1176.5 849.167,1176.5 906.5,1176.5C 906.5,1249.83 906.5,1323.17 906.5,1396.5C 916.167,1396.5 925.833,1396.5 935.5,1396.5C 935.5,1431.5 935.5,1466.5 935.5,1501.5 Z M 786.5,1226.5 C 809.167,1226.5 831.833,1226.5 854.5,1226.5C 854.5,1283.17 854.5,1339.83 854.5,1396.5C 827.498,1396.67 800.498,1396.5 773.5,1396C 781.193,1379.73 785.36,1362.56 786,1344.5C 786.5,1305.17 786.667,1265.83 786.5,1226.5 Z"/></g>
<g><path style="opacity:0.978" fill="#fefffe" d="M 973.5,1176.5 C 1033.83,1176.5 1094.17,1176.5 1154.5,1176.5C 1154.5,1193.17 1154.5,1209.83 1154.5,1226.5C 1111.5,1226.5 1068.5,1226.5 1025.5,1226.5C 1025.5,1246.83 1025.5,1267.17 1025.5,1287.5C 1061.83,1287.5 1098.17,1287.5 1134.5,1287.5C 1134.5,1304.17 1134.5,1320.83 1134.5,1337.5C 1098.17,1337.5 1061.83,1337.5 1025.5,1337.5C 1025.5,1357.17 1025.5,1376.83 1025.5,1396.5C 1068.5,1396.5 1111.5,1396.5 1154.5,1396.5C 1154.5,1412.83 1154.5,1429.17 1154.5,1445.5C 1094.17,1445.5 1033.83,1445.5 973.5,1445.5C 973.5,1355.83 973.5,1266.17 973.5,1176.5 Z"/></g>
<g><path style="opacity:0.973" fill="#fefffe" d="M 1162.5,1176.5 C 1228.5,1176.5 1294.5,1176.5 1360.5,1176.5C 1360.5,1193.17 1360.5,1209.83 1360.5,1226.5C 1336.17,1226.5 1311.83,1226.5 1287.5,1226.5C 1287.5,1299.5 1287.5,1372.5 1287.5,1445.5C 1270.17,1445.5 1252.83,1445.5 1235.5,1445.5C 1235.5,1372.5 1235.5,1299.5 1235.5,1226.5C 1211.17,1226.5 1186.83,1226.5 1162.5,1226.5C 1162.5,1209.83 1162.5,1193.17 1162.5,1176.5 Z"/></g>
<g><path style="opacity:0.984" fill="#fefffe" d="M 1454.5,1176.5 C 1465.5,1176.5 1476.5,1176.5 1487.5,1176.5C 1521.29,1265.88 1555.29,1355.21 1589.5,1444.5C 1571.18,1445.67 1552.84,1445.83 1534.5,1445C 1528.8,1431.08 1523.8,1416.91 1519.5,1402.5C 1486.83,1402.5 1454.17,1402.5 1421.5,1402.5C 1416.83,1416.83 1412.17,1431.17 1407.5,1445.5C 1388.82,1445.83 1370.15,1445.5 1351.5,1444.5C 1385.84,1355.14 1420.17,1265.8 1454.5,1176.5 Z M 1469.5,1265.5 C 1471.28,1266.57 1472.45,1268.24 1473,1270.5C 1482.81,1298.09 1492.31,1325.76 1501.5,1353.5C 1480.82,1353.83 1460.16,1353.5 1439.5,1352.5C 1449.91,1323.61 1459.91,1294.61 1469.5,1265.5 Z"/></g>
<g><path style="opacity:0.976" fill="#fefffe" d="M 1652.5,1176.5 C 1713.17,1176.5 1773.83,1176.5 1834.5,1176.5C 1834.5,1266.17 1834.5,1355.83 1834.5,1445.5C 1817.17,1445.5 1799.83,1445.5 1782.5,1445.5C 1782.5,1372.5 1782.5,1299.5 1782.5,1226.5C 1756.5,1226.5 1730.5,1226.5 1704.5,1226.5C 1704.67,1269.5 1704.5,1312.5 1704,1355.5C 1703.52,1383.61 1693.35,1407.44 1673.5,1427C 1654.92,1441.07 1633.92,1447.23 1610.5,1445.5C 1610.5,1429.17 1610.5,1412.83 1610.5,1396.5C 1633.77,1394.41 1647.27,1381.74 1651,1358.5C 1652.48,1297.87 1652.98,1237.2 1652.5,1176.5 Z"/></g>
<g><path style="opacity:0.987" fill="#fefffe" d="M 2084.5,1356.5 C 2084.5,1360.5 2084.5,1364.5 2084.5,1368.5C 2080.63,1412.87 2056.63,1438.37 2012.5,1445C 1972.5,1445.5 1932.5,1445.67 1892.5,1445.5C 1892.5,1355.83 1892.5,1266.17 1892.5,1176.5C 1909.5,1176.5 1926.5,1176.5 1943.5,1176.5C 1943.5,1210.5 1943.5,1244.5 1943.5,1278.5C 1967.53,1278.12 1991.53,1278.62 2015.5,1280C 2058.02,1288.02 2081.02,1313.52 2084.5,1356.5 Z M 1943.5,1328.5 C 1965.89,1328.04 1988.22,1328.54 2010.5,1330C 2024.48,1336 2031.15,1346.67 2030.5,1362C 2030.94,1375.45 2025.61,1385.79 2014.5,1393C 2010.65,1394.62 2006.65,1395.62 2002.5,1396C 1982.84,1396.5 1963.17,1396.67 1943.5,1396.5C 1943.5,1373.83 1943.5,1351.17 1943.5,1328.5 Z"/></g>
</svg>
